<svg width="900" height="900" viewBox="0 0 900 900" fill="none" xmlns="http://www.w3.org/2000/svg">
<path fill-rule="evenodd" clip-rule="evenodd" d="M837.282 505.104C834.66 522.519 828.024 539.089 817.899 553.505C807.774 567.922 794.444 579.788 778.948 588.165C774.656 590.545 770.159 592.542 765.519 594.133C771.416 672.291 647.216 700.712 580.285 682.096L605.153 769.065L541.206 771.339L429.298 611.115C391.569 621.773 347.019 626.889 318.243 580.704C315.629 576.463 313.256 572.072 311.137 567.56C303.817 569.052 296.368 569.812 288.898 569.833C267.582 569.833 232.056 563.439 214.008 550.933C199.7 541.448 188.35 528.125 181.253 512.494C142.814 517.752 110.2 508.728 88.8847 486.418C61.8847 458.636 54.211 412.736 68.2794 363.497C86.8241 297.773 143.24 223.736 255.361 195.954C265.087 183.863 276.728 173.446 289.822 165.118C360.235 119.999 474.558 116.091 561.314 158.936C594.947 152.671 629.666 155.994 661.498 168.528C723.882 191.904 769.214 240.789 777.74 290.454C794.629 299.206 808.456 312.884 817.387 329.675C836.074 364.775 838.703 399.947 826.127 428.368C837.971 452.092 841.886 478.993 837.282 505.104ZM791.24 468.157C791.218 468.168 791.197 468.18 791.175 468.191C781.259 473.413 770.227 476.143 759.018 476.143C747.784 476.143 736.728 473.401 726.795 468.157L731.982 433.697C753.866 435.828 771.7 429.007 781.008 415.01C791.453 399.449 789.819 376.357 776.603 351.56C761.824 323.778 729.921 319.373 712.229 319.16H711.093C666.756 319.16 621.566 344.383 603.306 377.281L576.732 364.562C581.957 347.616 590.833 332.02 602.737 318.875C592.489 310.174 584.743 298.9 580.297 286.213C575.851 273.525 574.866 259.881 577.443 246.686L603.661 244.27C604.861 254.942 609.274 264.998 616.316 273.105C623.358 281.213 632.7 286.991 643.095 289.673C664.965 279.911 688.711 275.061 712.656 275.462C716.066 275.462 719.335 275.818 722.674 276.031C705.685 245.913 678.764 222.631 646.506 210.165C567.779 179.612 514.703 227.004 502.553 243.347C473.279 282.568 492.037 319.657 506.319 343.744L482.872 365.06C462.451 347.396 448.749 323.229 444.077 296.636C414.022 305.66 373.664 303.741 351.069 265.16L372.385 250.523C396.329 268.428 434.343 266.865 452.39 244.768C456.69 234.997 462.128 225.767 468.59 217.27C478.85 203.72 491.23 191.916 505.253 182.312C446.35 166.254 363.148 168.883 312.843 201.141C299.249 209.035 288.059 220.48 280.474 234.248C272.889 248.018 269.194 263.591 269.785 279.299C269.785 304.665 289.679 344.739 316.466 350.991L300.906 381.189C283.815 377.23 268.299 368.248 256.356 355.397L233.264 384.812L210.172 373.586L232.766 314.47C229.074 302.988 227.182 291.004 227.153 278.944C227.21 269.395 228.21 259.876 230.137 250.523C159.085 279.868 123.985 328.681 111.124 373.302C101.248 407.62 105.085 438.599 121.285 455.225C134.145 468.441 153.827 471.568 172.372 470.36L222.108 431.636L238.45 445.42L223.672 493.878C231.416 518.533 256.782 531.252 303.037 522.299C305.435 502.682 313.178 484.101 325.419 468.583C334.395 455.666 346.27 445.037 360.093 437.533L384.393 372.094L408.693 371.028L406.064 424.673C446.919 420.481 492.606 428.794 535.166 422.399L542.982 450.82C480.598 479.668 416.722 432.631 358.814 494.66C337.995 516.97 345.953 536.368 358.814 555.907C377.358 583.831 412.174 567.062 447.772 555.907C501.7 539.423 540.85 527.486 614.674 533.525C597.053 500.06 598.758 459.631 622.348 415.152L657.093 428.865C632.721 485.068 655.529 517.61 671.303 531.962C695.674 554.131 732.337 560.81 756.566 547.452C765.846 542.329 773.825 535.138 779.886 526.442C785.947 517.745 789.925 507.769 791.524 497.289C793.121 487.644 793.002 477.794 791.175 468.191C791.173 468.18 791.171 468.168 791.169 468.157H791.24Z" fill="#FF2266"/>
<g filter="url(#filter0_i_1_10)">
<path d="M791.175 468.191C781.259 473.413 770.227 476.143 759.017 476.143C747.784 476.143 736.728 473.401 726.795 468.157L731.982 433.697C753.866 435.828 771.7 429.007 781.008 415.01C791.453 399.449 789.819 376.357 776.603 351.56C761.824 323.778 729.921 319.373 712.229 319.16H711.092C666.756 319.16 621.566 344.383 603.306 377.281L576.732 364.562C581.956 347.616 590.833 332.02 602.737 318.876C592.489 310.174 584.742 298.901 580.297 286.213C575.851 273.525 574.866 259.881 577.443 246.686L603.661 244.27C604.861 254.942 609.274 264.998 616.316 273.106C623.358 281.213 632.7 286.991 643.095 289.673C664.965 279.911 688.711 275.061 712.656 275.462C716.066 275.462 719.335 275.818 722.674 276.031C705.685 245.913 678.763 222.631 646.506 210.165C567.779 179.612 514.703 227.004 502.553 243.347C473.279 282.568 492.037 319.657 506.319 343.744L482.871 365.06C462.451 347.396 448.748 323.229 444.077 296.636C414.021 305.66 373.664 303.741 351.069 265.16L372.385 250.523C396.329 268.428 434.343 266.865 452.39 244.768C456.69 234.997 462.128 225.767 468.59 217.27C478.85 203.721 491.23 191.916 505.253 182.312C446.35 166.255 363.148 168.883 312.842 201.141C299.249 209.035 288.059 220.48 280.474 234.248C272.889 248.018 269.193 263.591 269.785 279.299C269.785 304.665 289.679 344.739 316.466 350.991L300.906 381.189C283.815 377.23 268.299 368.248 256.356 355.397L233.264 384.812L210.171 373.586L232.766 314.47C229.074 302.988 227.181 291.004 227.153 278.944C227.21 269.395 228.21 259.876 230.137 250.523C159.085 279.868 123.985 328.681 111.124 373.302C101.248 407.62 105.085 438.599 121.285 455.226C134.145 468.441 153.827 471.568 172.371 470.36L222.108 431.636L238.45 445.42L223.671 493.878C231.416 518.533 256.782 531.252 303.037 522.299C305.435 502.682 313.178 484.101 325.419 468.583C334.395 455.666 346.27 445.037 360.093 437.533L384.392 372.094L408.692 371.028L406.064 424.673C446.919 420.481 492.606 428.794 535.166 422.399L542.982 450.82C480.598 479.668 416.721 432.631 358.814 494.66C337.995 516.97 345.953 536.368 358.814 555.907C377.358 583.831 412.174 567.062 447.771 555.907C501.7 539.423 540.85 527.486 614.674 533.526C597.053 500.06 598.758 459.631 622.348 415.152L657.092 428.865C632.721 485.068 655.529 517.61 671.303 531.962C695.674 554.131 732.337 560.81 756.566 547.452C765.846 542.329 773.825 535.138 779.886 526.442C785.946 517.745 789.925 507.769 791.524 497.289C793.121 487.644 793.002 477.794 791.175 468.191Z" fill="white"/>
</g>
<defs>
<filter id="filter0_i_1_10" x="105.725" y="172.699" width="698.915" height="405.985" filterUnits="userSpaceOnUse" color-interpolation-filters="sRGB">
<feFlood flood-opacity="0" result="BackgroundImageFix"/>
<feBlend mode="normal" in="SourceGraphic" in2="BackgroundImageFix" result="shape"/>
<feColorMatrix in="SourceAlpha" type="matrix" values="0 0 0 0 0 0 0 0 0 0 0 0 0 0 0 0 0 0 127 0" result="hardAlpha"/>
<feOffset dx="12" dy="7.5"/>
<feGaussianBlur stdDeviation="16.275"/>
<feComposite in2="hardAlpha" operator="arithmetic" k2="-1" k3="1"/>
<feColorMatrix type="matrix" values="0 0 0 0 0 0 0 0 0 0 0 0 0 0 0 0 0 0 0.75 0"/>
<feBlend mode="normal" in2="shape" result="effect1_innerShadow_1_10"/>
</filter>
</defs>
</svg>
